<svg width="400" height="550" viewBox="0 0 400 550" fill="none" xmlns="http://www.w3.org/2000/svg">
<rect width="400" height="550" fill="#2E2E2E"/>
<path d="M90.0011 203.394C90.0011 188.638 94.7387 173.687 104.214 158.542C113.69 143.397 127.515 130.854 145.688 120.912C163.861 110.97 185.065 106 209.297 106C231.821 106 251.703 110.155 268.945 118.466C286.186 126.776 299.507 138.076 308.904 152.368C318.3 166.659 323 182.192 323 198.968C323 212.171 320.32 223.744 314.962 233.684C309.603 243.625 303.233 252.208 295.856 259.431C288.478 266.653 275.236 278.809 256.13 295.895C250.848 300.71 246.615 304.943 243.431 308.594C240.246 312.244 237.878 315.584 236.324 318.613C234.771 321.642 233.567 324.671 232.713 327.7C231.859 330.729 230.577 336.049 228.868 343.661C225.917 359.815 216.674 367.893 201.141 367.893C193.064 367.893 186.268 365.252 180.754 359.971C175.24 354.69 172.482 346.845 172.483 336.437C172.482 323.39 174.502 312.089 178.541 302.535C182.579 292.982 187.938 284.594 194.617 277.372C201.297 270.149 210.306 261.567 221.646 251.625C231.587 242.927 238.771 236.364 243.197 231.937C247.624 227.509 251.352 222.578 254.382 217.141C257.411 211.705 258.925 205.802 258.925 199.433C258.925 187.007 254.304 176.522 245.062 167.978C235.82 159.435 223.898 155.164 209.297 155.164C192.21 155.164 179.628 159.474 171.551 168.095C163.474 176.716 156.639 189.415 151.047 206.191C145.765 223.744 135.747 232.52 120.989 232.52C112.291 232.521 104.952 229.453 98.9705 223.317C92.9894 217.181 90 210.541 90 203.395L90.0011 203.394ZM203.708 458.759C194.233 458.759 185.961 455.691 178.893 449.555C171.826 443.419 168.292 434.837 168.292 423.808C168.292 414.022 171.709 405.79 178.544 399.11C185.378 392.431 193.767 389.092 203.708 389.091C213.493 389.091 221.726 392.431 228.406 399.11C235.085 405.79 238.424 414.023 238.425 423.808C238.424 434.682 234.929 443.225 227.94 449.438C220.95 455.651 212.873 458.758 203.707 458.758L203.708 458.759Z" fill="#515151" stroke="#1E1E1E" stroke-width="3"/>
<path d="M331.648 62.5053C323.532 60.5634 322.315 57.3891 323.35 50.1782C320.272 47.4037 318.289 46.2634 314.507 44.6279C307.447 51.5271 308.488 59.133 311.478 63.7147C314.468 68.2964 322.79 74.7562 333.685 70.4874C333.673 66.9207 333.145 65.2202 331.648 62.5053Z" fill="#515151" stroke="#1E1E1E" stroke-width="2"/>
<path d="M134.878 446.307C145.161 453.212 147.657 464.918 142.53 476.406C138.884 475.881 134.361 475.328 131.156 473.449C133.041 466.962 132.877 461.919 127.645 457.369C122.412 452.819 118.192 453.035 107.853 453.957C106.558 451.991 103.236 445.607 102.948 442.965C113.52 439.078 124.594 439.403 134.878 446.307Z" fill="#515151" stroke="#1E1E1E" stroke-width="3"/>
<path d="M93.5399 46.1309C90.9775 45.8472 88.0338 45.6137 83.5514 46.7651C87.9931 54.3433 87.0396 59.9244 83.5514 62.2988C80.0632 64.6732 72.0229 66.2386 66.1114 57.7047L64.3675 59.9244C67.5384 75.4619 82.792 79.0122 91.9709 71.6879C101.15 64.3637 99.4292 53.8659 93.5399 46.1309Z" fill="#515151" stroke="#1E1E1E"/>
<path d="M50 267L63.1943 274.962" stroke="#1E1E1E" stroke-width="3"/>
<path d="M355.389 312L329 322.464" stroke="#1E1E1E" stroke-width="3"/>
<path d="M338.878 488.81C331.979 478.665 333.799 474.01 342.063 467.199C341.463 461.136 340.438 457.934 337.946 452.412C323.444 452.922 317.045 462.218 315.759 470.157C314.473 478.097 317.124 493.356 333.19 499.502C336.707 495.613 337.817 493.242 338.878 488.81Z" fill="#515151" stroke="#1E1E1E" stroke-width="3"/>
</svg>
