<svg width="73" height="63" viewBox="0 0 73 63" fill="none" xmlns="http://www.w3.org/2000/svg">
<path d="M70.7895 45.4603C72.5214 58.8818 62.9964 60.3971 62.9964 60.3971H11.4751C11.4751 60.3971 -1.29696 63.6442 2.81608 45.4603C6.92913 27.2763 23.5978 18.8337 38.3182 19.0502C53.0385 19.2667 69.0577 32.0388 70.7895 45.4603Z" fill="#515151" stroke="#1E1E1E" stroke-width="4"/>
<path d="M4.7666 45.0272C6.34405 39.1485 7.63688 36.3618 10.8279 32.4716C14.2281 35.1544 14.2915 39.3988 12.9927 41.78C11.6938 44.1613 8.07278 45.8584 4.7666 45.0272Z" fill="#1E1E1E"/>
<path d="M58.076 37.4506C57.6874 38.1094 57.4361 38.4413 56.3441 38.3165C51.4025 31.1247 47.2097 29.621 38.8096 28.5751C38.232 27.7297 38.0766 27.2557 38.8096 26.4103C48.9097 27.8636 53.399 29.982 58.076 37.4506Z" fill="#1E1E1E"/>
<ellipse cx="14.0759" cy="49.3562" rx="2.16476" ry="2.16476" fill="#1E1E1E"/>
<path d="M58.6671 8.22638V25.5444L54.7705 23.1632V8.22638C56.4954 7.01836 56.8214 6.99824 58.6671 8.22638Z" fill="#1E1E1E"/>
<circle cx="56.2836" cy="2.38124" r="2.38124" fill="#1E1E1E"/>
<path d="M47.6274 12.7717V19.6989L50.8746 20.9978V12.7717C49.7635 11.4939 49.0044 11.4571 47.6274 12.7717Z" fill="#1E1E1E"/>
<path d="M59.7505 41.5955C58.9499 40.937 58.5296 41.0159 57.8022 41.5955C58.7799 43.6099 59.104 44.6769 58.8846 46.358C59.984 46.8514 60.4103 46.6986 60.8329 45.7086C60.802 43.5272 60.4956 42.7286 59.7505 41.5955Z" fill="#1E1E1E"/>
</svg>
