<svg width="98" height="99" viewBox="0 0 98 99" fill="none" xmlns="http://www.w3.org/2000/svg">
<circle cx="50" cy="50.012" r="46.5" fill="#2E2E2E" stroke="#1E1E1E" stroke-width="3"/>
<path d="M92.766 66.6116C85.8675 56.4666 87.6872 51.8121 95.9509 45.0002C95.3516 38.9372 94.3259 35.7354 91.8338 30.2135C77.3319 30.7233 70.9333 40.0196 69.6475 47.9591C68.3617 55.8985 71.0119 71.1577 87.0786 77.3035C90.5954 73.4145 91.7051 71.0438 92.766 66.6116Z" fill="#515151" stroke="#1E1E1E" stroke-width="3"/>
<path d="M37.5661 65.8616C47.8498 72.7661 50.3452 84.4721 45.2189 95.9604C41.5723 95.4357 37.05 94.8821 33.8445 93.0031C35.7295 86.516 35.5657 81.473 30.3333 76.9233C25.1008 72.3735 20.8803 72.5893 10.5418 73.5109C9.24649 71.5454 5.92492 65.1617 5.63601 62.5196C16.2089 58.6319 27.2824 58.9572 37.5661 65.8616Z" fill="#515151" stroke="#1E1E1E" stroke-width="3"/>
<path d="M53.8662 3.82531C50.1896 3.41836 45.9658 3.08332 39.5343 4.73527C45.9074 15.6089 44.5394 23.6168 39.5343 27.0237C34.5293 30.4305 22.9928 32.6767 14.5108 20.432L12.0085 23.6168C16.5583 45.9107 38.4448 51.0047 51.615 40.4956C64.7853 29.9865 62.3165 14.9238 53.8662 3.82531Z" fill="#515151" stroke="#1E1E1E" stroke-width="3"/>
<path d="M57.7349 33.6207L70.9292 41.5828" stroke="#1E1E1E" stroke-width="3"/>
<path d="M24.9806 42.9475L21.3408 59.5542" stroke="#1E1E1E" stroke-width="3"/>
<path d="M73.2026 66.3822L46.814 76.8467" stroke="#1E1E1E" stroke-width="3"/>
<circle cx="74.1096" cy="24.0677" r="1.13744" fill="#A3A3A3"/>
<circle cx="9.13744" cy="49.1374" r="1.13744" fill="#A3A3A3"/>
<circle cx="60.1374" cy="65.1374" r="1.13744" fill="#A3A3A3"/>
</svg>
