<svg width="339" height="247" viewBox="0 0 339 247" fill="none" xmlns="http://www.w3.org/2000/svg">
<circle cx="48" cy="27" r="3" fill="white" fill-opacity="0.3"/>
<circle cx="87" cy="36" r="6" fill="white" fill-opacity="0.3"/>
<circle cx="79.5" cy="73.5" r="4.5" fill="white" fill-opacity="0.3"/>
<circle cx="198.5" cy="227.5" r="4.5" fill="white" fill-opacity="0.3"/>
<circle cx="181.5" cy="164.5" r="4.5" fill="white" fill-opacity="0.3"/>
<circle cx="153" cy="146" r="3" fill="white" fill-opacity="0.3"/>
<circle cx="267" cy="30" r="3" fill="white" fill-opacity="0.3"/>
<circle cx="168" cy="89" r="3" fill="white" fill-opacity="0.3"/>
<circle cx="81" cy="152" r="3" fill="white" fill-opacity="0.3"/>
<circle cx="128.5" cy="155.5" r="1.5" fill="white" fill-opacity="0.3"/>
<circle cx="42" cy="231" r="3" fill="white" fill-opacity="0.3"/>
<circle cx="314" cy="208" r="3" fill="white" fill-opacity="0.3"/>
<circle cx="106" cy="3" r="3" fill="white" fill-opacity="0.3"/>
<circle cx="224" cy="9" r="3" fill="white" fill-opacity="0.3"/>
<circle cx="53" cy="89" r="3" fill="white" fill-opacity="0.3"/>
<circle cx="54" cy="190" r="3" fill="white" fill-opacity="0.3"/>
<circle cx="243" cy="100" r="3" fill="white" fill-opacity="0.3"/>
<circle cx="180" cy="66" r="3" fill="white" fill-opacity="0.3"/>
<circle cx="127" cy="91" r="3" fill="white" fill-opacity="0.3"/>
<circle cx="147" cy="111" r="2" fill="white" fill-opacity="0.3"/>
<circle cx="18" cy="45" r="3" fill="white" fill-opacity="0.3"/>
<circle cx="279" cy="63" r="3" fill="white" fill-opacity="0.3"/>
<circle cx="109" cy="66" r="3" fill="white" fill-opacity="0.3"/>
<circle cx="150" cy="53" r="3" fill="white" fill-opacity="0.3"/>
<circle cx="8" cy="193" r="3" fill="white" fill-opacity="0.3"/>
<circle cx="165" cy="196" r="3" fill="white" fill-opacity="0.3"/>
<circle cx="192" cy="196" r="3" fill="white" fill-opacity="0.3"/>
<circle cx="221" cy="180" r="3" fill="white" fill-opacity="0.3"/>
<circle cx="321" cy="174" r="3" fill="white" fill-opacity="0.3"/>
<circle cx="299" cy="145" r="3" fill="white" fill-opacity="0.3"/>
<circle cx="276" cy="103" r="3" fill="white" fill-opacity="0.3"/>
<circle cx="147" cy="81" r="3" fill="white" fill-opacity="0.3"/>
<circle cx="4.5" cy="90.5" r="4.5" fill="white" fill-opacity="0.3"/>
<circle cx="207.5" cy="46.5" r="4.5" fill="white" fill-opacity="0.3"/>
<circle cx="52.5" cy="55.5" r="4.5" fill="white" fill-opacity="0.3"/>
<circle cx="334.5" cy="113.5" r="4.5" fill="white" fill-opacity="0.3"/>
<circle cx="81" cy="217" r="6" fill="white" fill-opacity="0.3"/>
<circle cx="186" cy="124" r="6" fill="white" fill-opacity="0.3"/>
<circle cx="106" cy="171" r="6" fill="white" fill-opacity="0.3"/>
<circle cx="112" cy="241" r="6" fill="white" fill-opacity="0.3"/>
<circle cx="136" cy="211" r="6" fill="white" fill-opacity="0.3"/>
<circle cx="165" cy="229" r="6" fill="white" fill-opacity="0.3"/>
<circle cx="124" cy="33" r="6" fill="white" fill-opacity="0.3"/>
<circle cx="276" cy="223" r="6" fill="white" fill-opacity="0.3"/>
<circle cx="305" cy="12" r="6" fill="white" fill-opacity="0.3"/>
<circle cx="333" cy="72" r="6" fill="white" fill-opacity="0.3"/>
<circle cx="51" cy="127" r="6" fill="white" fill-opacity="0.3"/>
<circle cx="93" cy="124" r="6" fill="white" fill-opacity="0.3"/>
<circle cx="99" cy="91" r="6" fill="white" fill-opacity="0.3"/>
<circle cx="246" cy="142" r="6" fill="white" fill-opacity="0.3"/>
<circle cx="218" cy="112" r="6" fill="white" fill-opacity="0.3"/>
<circle cx="252" cy="66" r="6" fill="white" fill-opacity="0.3"/>
<circle cx="186" cy="27" r="6" fill="white" fill-opacity="0.3"/>
</svg>
