<svg width="115" height="50" viewBox="0 0 115 50" fill="none" xmlns="http://www.w3.org/2000/svg">
<path d="M55.2383 0V8.09053H44.8501V23.954H35.7549V8.08196L25.0803 8.1124C24.986 8.1124 24.9286 8.12236 24.8986 8.12998C24.8896 8.15519 24.8812 8.19149 24.8768 8.2265C25.0567 8.64289 26.1931 10.0818 26.8815 10.9536C27.1305 11.2691 29.3237 14.0597 29.6701 14.8501C30.7927 17.4339 29.4598 21.2435 26.8732 22.8432L26.7705 22.9069C25.9478 23.4178 25.3988 23.7131 23.6777 23.8391L0 23.9543V15.2254H18.7507L18.8996 15.1218C18.9054 15.1178 18.9097 15.1144 18.9124 15.1123C18.9146 15.107 18.9182 15.0978 18.9222 15.0835C18.673 14.7262 17.9262 13.8848 17.141 13.0003C14.4353 9.95181 13.8713 9.06666 14.0477 6.61623C14.1522 5.15665 14.8442 3.56477 15.8986 2.35838C17.1991 0.870515 18.9608 0.0511757 20.8575 0.0511757L55.2383 0ZM59.6197 0.170723H71.698L79.9931 24.161L70.9338 24.111L69.969 20.955L61.5118 20.9174L60.5668 23.9541H51.4108L59.6197 0.170723ZM82.0991 0.170712H99.9703C101.752 0.480289 103.391 1.6442 104.585 3.08944C105.8 4.55915 106.155 5.4546 106.312 7.44198C106.547 10.3883 105.121 13.0096 102.4 14.6335C102.336 14.6716 102.262 14.7154 102.181 14.7633C102.274 14.8471 102.361 14.9213 102.433 14.9774L102.659 15.1526L115 15.3272V23.9539H106.618C100.415 23.9539 99.2815 23.8878 98.6046 23.6594C97.7228 23.3606 96.3862 22.3813 91.8546 18.07L91.7022 17.9249L91.7233 23.9539H82.0986L82.0991 0.170712ZM96.8683 7.26167L91.5918 7.28168V9.5449H96.8683C97.1835 9.54487 97.4391 9.03377 97.439 8.40327C97.439 7.77278 97.1835 7.2617 96.8683 7.26167ZM65.8253 8.92922L64.1905 13.5199L67.3829 13.5158L65.8253 8.92922ZM52.3561 25.0935L60.6688 49.0105L51.6137 49.0519L50.6211 45.8806L42.1237 45.8127L41.1831 48.9763L32.1815 48.8821L40.3901 25.1047L52.3561 25.0935ZM100.028 25.1801H114.867L114.846 33.5824L104.469 33.5578C104.092 33.5578 103.801 33.5582 103.577 33.5585C103.747 33.8204 104.03 34.2203 104.39 34.6708C104.837 35.2308 105.503 36.0629 106.054 36.7519L106.525 37.3395C108.108 39.3143 108.497 39.9253 108.687 41.3963C108.979 43.6578 107.956 46.0415 106.018 47.617L105.987 47.6425C105.043 48.4105 104.414 48.8542 102.457 49.0434L80.132 48.993C78.8257 48.6976 77.351 47.53 72.9573 43.3151C72.8162 43.1798 72.6785 43.0487 72.5456 42.9225L72.509 49.2146L63.1083 49.173L63.0624 25.4252H79.0622L79.0884 25.4264C81.5841 25.5164 83.9468 26.761 85.5711 28.8414C86.9631 30.6245 87.5736 32.7301 87.2037 34.4756C87.0368 35.26 86.6394 36.3173 86.2791 36.9363C85.6853 37.9542 84.4242 39.1446 83.177 39.9127C83.3116 40.0295 83.4342 40.1276 83.5214 40.1845L97.4855 40.2237C97.134 39.7022 96.204 38.6526 95.6481 38.0266C92.8362 35.2177 92.6137 33.508 92.627 31.9976C92.6278 31.9147 92.6287 31.835 92.6274 31.7576C92.6 30.8281 92.9567 28.8566 94.4704 27.2908C95.401 26.328 97.1208 25.1805 100.028 25.1805L100.028 25.1801ZM0.381997 25.26L9.37118 25.2659L11.6197 31.618L13.8565 25.2612H22.5877L24.7827 31.6979L26.9867 25.3372H36.0184L27.8261 49.2074H21.6116L18.189 39.2966L14.6337 49.0465H8.47534L0.381997 25.26ZM72.5269 32.5127C72.5263 32.8456 72.5247 33.2089 72.5229 33.5716C72.5205 33.9833 72.5184 34.3944 72.516 34.761C72.9814 34.7906 73.6041 34.8137 74.4112 34.8137C76.9556 34.8137 77.4614 34.7709 77.7788 34.633C78.3481 34.3859 78.4573 33.9643 78.4718 33.7351C78.4983 33.3107 78.2548 32.901 77.8183 32.6361C77.4762 32.5391 75.7217 32.5295 74.5557 32.5231L72.5269 32.5127ZM46.4826 34.0361L44.9011 38.3586L47.9496 38.3572L46.4826 34.0361Z" fill="white" fill-opacity="0.98"/>
</svg>
