<svg width="345" height="257" viewBox="0 0 345 257" fill="none" xmlns="http://www.w3.org/2000/svg">
<g filter="url(#filter0_f)">
<path d="M107.629 1.0203C107.251 1.31313 106.669 1.21389 106.322 1.02473C106.217 1.48995 105.788 1.86391 105.34 1.93607C105.636 2.32291 105.605 2.918 105.314 3.27753C105.783 3.37564 106.21 3.7654 106.258 4.25624C106.646 3.94449 107.255 4.02004 107.613 4.25304C107.709 3.7872 108.131 3.40164 108.568 3.31345C108.259 2.92388 108.391 2.3197 108.566 1.96557C108.113 1.85642 107.711 1.47464 107.657 1L107.629 1.02033L107.629 1.0203ZM303.804 9.92552C303.717 10.898 302.394 11.2254 301.678 10.7078C300.616 10.3493 299.549 10.0086 298.479 9.67345C299.661 10.716 300.944 11.6933 301.876 12.9774C301.948 13.9343 300.959 14.4852 300.175 14.7449C299.347 15.1902 298.509 15.6164 297.674 16.0492C299.247 15.95 300.844 15.7347 302.41 15.9818C303.119 16.5849 302.852 17.6572 302.479 18.3758C302.205 19.2978 301.9 20.2097 301.612 21.1273C302.655 19.945 303.632 18.6618 304.915 17.7294C305.871 17.6568 306.423 18.6445 306.683 19.4277C307.129 20.2562 307.555 21.0956 307.988 21.9311C307.889 20.3585 307.674 18.7607 307.921 17.1944C308.543 16.4666 309.634 16.7754 310.369 17.1439C311.273 17.4115 312.167 17.712 313.067 17.994C311.884 16.9514 310.602 15.9742 309.668 14.6915C309.594 13.77 310.53 13.1951 311.302 12.9574C312.152 12.5 313.013 12.0622 313.87 11.6175C312.298 11.7164 310.701 11.9311 309.135 11.686C308.417 11.073 308.702 9.99141 309.074 9.26343C309.349 8.35248 309.643 7.4478 309.931 6.541C308.889 7.72319 307.912 9.0065 306.628 9.93748C305.697 10.009 305.131 9.0576 304.886 8.28471C304.44 7.44411 304 6.59985 303.565 5.75362C303.645 7.1443 303.725 8.53491 303.804 9.92559L303.804 9.92552ZM224.793 8.62671C224.531 8.96771 224.02 9.0535 223.664 9.05761C223.724 9.478 223.424 9.89632 223.171 10.1345C223.524 10.3865 223.615 10.9049 223.597 11.2601C224.018 11.2046 224.453 11.4797 224.692 11.7414C224.943 11.3792 225.491 11.3465 225.817 11.2899C225.759 10.8723 226.053 10.4532 226.312 10.222C225.972 9.96294 225.865 9.45992 225.87 9.10072C225.451 9.16203 225.032 8.88307 224.793 8.62673V8.62671ZM182.967 22.9828C182.879 23.9471 181.568 24.2773 180.855 23.7623C179.863 23.4322 178.874 23.0931 177.877 22.7797C178.995 23.7722 180.209 24.7061 181.078 25.9352C181.146 26.8677 180.191 27.4306 179.416 27.6731C178.644 28.0809 177.867 28.4764 177.09 28.8742C178.579 28.7844 180.094 28.5902 181.574 28.8432C182.279 29.4514 182.005 30.5221 181.629 31.2395C181.372 32.0757 181.1 32.9074 180.832 33.7399C181.821 32.6245 182.754 31.4172 183.978 30.5489C184.907 30.4783 185.472 31.4288 185.712 32.2025C186.122 32.9763 186.519 33.757 186.918 34.5363C186.828 33.0475 186.633 31.5327 186.888 30.0527C187.499 29.3481 188.572 29.6192 189.289 30.003C190.124 30.2559 190.953 30.526 191.783 30.7942C190.668 29.8054 189.461 28.8727 188.593 27.6494C188.522 26.7286 189.458 26.1564 190.23 25.923C191.009 25.5094 191.795 25.1102 192.58 24.7084C191.091 24.7984 189.578 24.9917 188.098 24.74C187.396 24.1372 187.658 23.0705 188.038 22.3582C188.296 21.5168 188.569 20.6801 188.839 19.8426C187.85 20.9578 186.916 22.1656 185.692 23.0336C184.76 23.103 184.197 22.1492 183.955 21.374C183.551 20.6057 183.154 19.8341 182.76 19.0605L182.967 22.9828ZM49.9956 22.9517C49.6692 23.5264 49.3959 24.4238 48.5976 24.4286C47.8841 24.4591 47.3413 23.9049 47.0187 23.3314C46.7699 22.9739 47.1021 23.7802 47.0926 23.9833C47.1735 24.5291 47.265 25.3535 46.6128 25.5727C46.0553 25.8121 45.4324 25.6779 44.8568 25.6126C45.4849 25.9682 46.2274 26.3779 46.4548 27.1038C46.4175 27.8827 45.7046 28.361 45.1466 28.7912C45.8421 28.5969 46.6597 28.3593 47.3351 28.7103C47.8587 29.287 47.7041 30.1286 47.6075 30.8278C47.9609 30.1995 48.3726 29.4571 49.0958 29.2259C49.8783 29.2622 50.3617 29.9766 50.7927 30.5389C50.6016 29.8331 50.327 28.9877 50.7425 28.3155C51.323 27.8245 52.1385 27.9809 52.8261 28.0741C52.196 27.7206 51.4514 27.3071 51.2231 26.5805C51.2604 25.8014 51.9734 25.3234 52.5317 24.893C51.836 25.0873 51.0171 25.3256 50.3424 24.9733C49.8019 24.3783 49.9864 23.5072 50.0777 22.7932C50.0503 22.8461 50.023 22.8989 49.9957 22.9518L49.9956 22.9517ZM85.6235 29.9184C85.5361 30.8911 84.2129 31.2183 83.497 30.6998C82.3408 30.3098 81.1795 29.9389 80.0156 29.573C81.2697 30.6825 82.6315 31.7193 83.6322 33.0744C83.7021 34.0044 82.7552 34.5774 81.9765 34.814C81.0485 35.3191 80.1021 35.7891 79.1667 36.28C80.837 36.1775 82.5317 35.9493 84.1964 36.1984C84.9062 36.805 84.6352 37.8785 84.2602 38.5988C83.9584 39.6124 83.6196 40.6144 83.3055 41.6242C84.4145 40.37 85.4514 39.0089 86.8062 38.0085C87.7353 37.9366 88.3031 38.8857 88.5462 39.659C89.049 40.5899 89.5189 41.538 90.0113 42.4744C89.9091 40.804 89.6807 39.1092 89.9299 37.4444C90.5348 36.7356 91.6075 37.0054 92.326 37.3795C93.3409 37.6817 94.3442 38.0208 95.3552 38.3355C94.1019 37.2268 92.7427 36.1898 91.7403 34.838C91.666 33.9187 92.5977 33.3409 93.3698 33.1063C94.3076 32.5995 95.2624 32.1252 96.2061 31.6296C94.5361 31.7315 92.8418 31.9601 91.1773 31.7125C90.4599 31.1002 90.744 30.0201 91.1163 29.2933C91.4182 28.2861 91.7534 27.2905 92.066 26.2868C90.9573 27.5397 89.9206 28.8988 88.5688 29.9009C87.6466 29.9756 87.0708 29.0383 86.8348 28.2657C86.3393 27.3327 85.8544 26.3941 85.3717 25.4545L85.6235 29.9184ZM124.998 32.2323C124.469 33.0428 123.156 32.7231 122.765 31.9356C122.131 31.2673 121.495 30.6011 120.849 29.944C121.334 31.2262 121.914 32.5064 122.079 33.8773C121.697 34.7552 120.567 34.7811 119.755 34.6428C119.019 34.65 118.283 34.6325 117.547 34.6218C118.795 35.1994 120.16 35.672 121.207 36.5716C121.521 37.4585 120.745 38.2477 120.084 38.7203C119.569 39.2407 119.043 39.75 118.519 40.2606C119.808 39.7889 121.107 39.1549 122.482 39.0532C123.327 39.4573 123.339 40.5613 123.207 41.3609C123.214 42.0963 123.196 42.8316 123.186 43.5669C123.763 42.3189 124.236 40.9543 125.136 39.9066C126.022 39.5929 126.812 40.3687 127.284 41.03C127.805 41.5448 128.314 42.0706 128.824 42.5951C128.341 41.3166 127.764 40.0396 127.599 38.6726C127.98 37.7951 129.111 37.7691 129.922 37.9073C130.658 37.8998 131.394 37.9174 132.131 37.9284C130.883 37.3502 129.518 36.8783 128.47 35.9784C128.157 35.0915 128.932 34.3021 129.594 33.8296C130.109 33.3094 130.635 32.8002 131.159 32.2898C129.87 32.7633 128.572 33.3931 127.196 33.497C126.341 33.0857 126.344 31.9715 126.472 31.1638C126.473 30.4431 126.48 29.7224 126.489 29.0017L124.998 32.2323ZM265.639 30.703C265.354 30.8865 264.945 30.7882 264.683 30.8309C264.595 31.1467 264.285 31.3414 264.082 31.5545C264.272 31.8423 264.125 32.2634 264.224 32.5193C264.536 32.5973 264.757 32.9148 264.933 33.1043C265.218 32.9252 265.626 33.0294 265.886 32.9773C265.962 32.6567 266.297 32.4396 266.484 32.2564C266.304 31.9668 266.401 31.5596 266.357 31.2915C266.042 31.2113 265.807 30.9179 265.639 30.703L265.639 30.703ZM208.454 42.6713C208.184 43.609 206.824 43.6784 206.219 43.0348C205.454 42.5942 204.678 42.1725 203.902 41.7507C204.714 42.8218 205.681 43.8568 206.167 45.1167C206.029 46.0466 204.974 46.3797 204.169 46.4884C203.498 46.6989 202.823 46.8934 202.148 47.0906C203.479 47.2735 204.899 47.3198 206.131 47.8735C206.682 48.6271 206.178 49.6006 205.688 50.245C205.363 50.8707 205.021 51.4877 204.682 52.1061C205.753 51.2936 206.787 50.3267 208.048 49.8429C208.979 49.9834 209.308 51.0398 209.419 51.8449C209.629 52.5143 209.823 53.1883 210.02 53.8615C210.202 52.5304 210.25 51.1124 210.801 49.8793C211.567 49.3185 212.549 49.8453 213.203 50.3368C213.816 50.6617 214.425 50.9928 215.034 51.3255C214.222 50.2551 213.255 49.2213 212.772 47.9616C212.911 47.0525 213.935 46.7014 214.732 46.6016C215.416 46.3886 216.104 46.1902 216.791 45.9893C215.46 45.8071 214.044 45.7583 212.81 45.2105C212.251 44.4543 212.762 43.4731 213.254 42.8264C213.579 42.2038 213.92 41.5897 214.257 40.9738C213.186 41.7864 212.152 42.7515 210.892 43.2375C209.954 43.0959 209.628 42.0291 209.515 41.2197C209.313 40.5573 209.115 39.8934 208.921 39.2287L208.454 42.6713ZM18.9396 40.3525C18.6615 40.9571 18.4472 41.8771 17.6491 41.9462C16.918 42.0356 16.3431 41.4862 15.9662 40.9325C15.7167 40.6122 16.0851 41.3218 16.0867 41.4502C16.2793 42.0323 16.4155 42.9198 15.7293 43.2253C15.2149 43.5109 14.5375 43.4232 14.0289 43.3995C14.6639 43.6927 15.4955 44.0208 15.6835 44.7591C15.7187 45.5186 15.0781 46.0617 14.5523 46.5084C15.2277 46.2658 16.0415 45.9612 16.7237 46.323C17.2534 46.8693 17.1456 47.6936 17.1055 48.386C17.4062 47.7436 17.729 46.8831 18.4844 46.6938C19.2491 46.6574 19.7876 47.3124 20.2412 47.8345C20.0075 47.1767 19.635 46.3555 20.0274 45.6978C20.5408 45.1292 21.3848 45.2081 22.0759 45.2559C21.4337 44.9539 20.5686 44.627 20.414 43.8518C20.4036 43.1025 21.049 42.5831 21.5621 42.1349C20.9029 42.3731 20.0795 42.7394 19.4184 42.3502C18.833 41.8229 18.9407 40.9507 18.9857 40.2447L18.955 40.3167L18.9396 40.3525ZM236.276 43.7519C236.022 43.8858 235.621 43.6888 235.525 44.0531C235.343 44.1848 235.196 44.3676 235.335 44.5855C235.31 44.8062 235.347 45.0337 235.591 45.0904C235.724 45.2619 235.901 45.4037 236.112 45.2692C236.336 45.3044 236.551 45.2509 236.615 45.0159C236.79 44.8883 236.931 44.7142 236.799 44.5025C236.813 44.296 236.816 44.0402 236.562 43.9979C236.46 43.9274 236.382 43.7995 236.276 43.7519V43.7519ZM51.9185 51.2297C51.6021 52.1533 50.2405 52.1586 49.6667 51.4862C49.1685 51.1634 48.6645 50.8548 48.1569 50.5467C48.7639 51.4376 49.5395 52.3261 49.7383 53.4063C49.4622 54.3298 48.357 54.4979 47.5394 54.6155C47.2878 54.7019 46.492 54.8556 46.573 54.8957C47.6149 55.0889 48.7847 55.162 49.6545 55.812C50.0936 56.6743 49.4015 57.5564 48.9201 58.2287C48.8324 58.4513 48.2857 59.1613 48.5152 59.0295C49.3661 58.4426 50.2296 57.6956 51.2769 57.5429C52.1879 57.8349 52.3369 58.9336 52.4611 59.744C52.546 59.9955 52.6939 60.7689 52.7372 60.7017C52.9305 59.6595 53.0027 58.488 53.6545 57.6183C54.5048 57.1856 55.3839 57.8526 56.044 58.3382C56.2704 58.4486 56.9694 58.9214 56.9123 58.8206C56.3185 57.9519 55.568 57.0795 55.3765 56.0254C55.652 55.1026 56.756 54.9335 57.573 54.8167C57.8263 54.7295 58.6183 54.5773 58.5413 54.5357C57.4994 54.3427 56.3296 54.2699 55.4601 53.6189C55.026 52.7691 55.6959 51.8891 56.1806 51.229C56.29 51.0031 56.7632 50.3028 56.6616 50.3613C55.793 50.9554 54.9206 51.7056 53.866 51.8965C52.9552 51.623 52.7744 50.5379 52.667 49.7264C52.5757 49.4585 52.4311 48.6958 52.376 48.7417C52.2235 49.571 52.0709 50.4003 51.9183 51.2296L51.9185 51.2297ZM152.498 49.2382C152.095 49.8549 151.77 50.5542 151.263 51.0887C150.52 51.602 149.482 51.0265 149.209 50.2448C149.05 50.0609 148.609 49.2977 148.65 49.5677C148.833 50.3741 149.107 51.2754 148.793 52.0757C148.115 52.795 147.04 52.4242 146.209 52.2761C145.644 52.1371 146.404 52.477 146.55 52.6066C147.093 52.9808 147.771 53.3812 147.971 54.0413C147.961 55.0393 146.914 55.506 146.223 56.012C145.843 56.2539 146.679 55.9359 146.836 55.9417C147.462 55.8295 148.201 55.6509 148.783 55.9724C149.47 56.6781 149.071 57.7359 148.939 58.572C148.839 59.0396 149.227 58.1879 149.364 58.0457C149.717 57.5493 150.101 56.934 150.712 56.7594C151.711 56.7686 152.178 57.8179 152.684 58.5094C152.924 58.8849 152.606 58.0493 152.612 57.894C152.5 57.2683 152.322 56.5305 152.642 55.9488C153.347 55.2603 154.406 55.6594 155.242 55.7912C155.711 55.8921 154.859 55.5037 154.716 55.3663C154.218 55.0136 153.603 54.6274 153.43 54.0157C153.441 53.0194 154.488 52.5527 155.178 52.048C155.533 51.8129 154.668 52.1362 154.483 52.1363C153.882 52.2384 153.173 52.3993 152.618 52.0877C151.923 51.3683 152.338 50.2953 152.473 49.4463C152.483 49.3825 152.498 49.2865 152.498 49.2381L152.498 49.2382ZM302.335 50.4861C302.137 50.6915 301.68 50.6203 301.722 51.0084C301.624 51.1904 301.508 51.433 301.738 51.5673C301.815 51.7859 301.891 52.0428 302.175 51.9987C302.361 52.1095 302.575 52.1521 302.726 51.9692C302.945 51.9272 303.123 51.808 303.104 51.5681C303.239 51.3739 303.291 51.1479 303.092 50.9839C303.046 50.7685 302.932 50.5524 302.681 50.6068C302.565 50.5871 302.444 50.4641 302.335 50.4861V50.4861ZM251.744 63.3239C251.244 64.163 249.911 63.8849 249.488 63.1088C248.608 62.2613 247.73 61.4094 246.831 60.5847C247.483 62.1291 248.263 63.6542 248.582 65.3099C248.248 66.1786 247.147 66.2827 246.345 66.1678C245.284 66.2187 244.222 66.2331 243.161 66.2724C244.713 66.9031 246.343 67.431 247.739 68.375C248.115 69.2194 247.424 70.0735 246.773 70.5519C246.057 71.3428 245.313 72.1076 244.587 72.8891C246.129 72.2384 247.653 71.4618 249.304 71.1362C250.187 71.4708 250.282 72.5864 250.171 73.396C250.221 74.4502 250.234 75.5057 250.274 76.5604C250.905 75.0076 251.433 73.3785 252.376 71.9817C253.221 71.6054 254.074 72.2974 254.553 72.9474C255.344 73.6637 256.109 74.4084 256.891 75.1347C256.239 73.5905 255.46 72.0649 255.14 70.4093C255.475 69.5403 256.576 69.4366 257.378 69.5521C258.439 69.5004 259.501 69.4864 260.563 69.4468C259.009 68.8162 257.38 68.2884 255.983 67.3442C255.608 66.4998 256.299 65.6458 256.949 65.1674C257.665 64.3762 258.409 63.6116 259.136 62.83C257.592 63.4821 256.066 64.2613 254.411 64.5806C253.542 64.2458 253.438 63.1457 253.553 62.3441C253.51 61.2894 253.479 60.2342 253.45 59.1791L251.744 63.3239ZM108.927 61.3666C108.873 62.0246 109.001 62.7238 108.803 63.3581C108.405 64.1459 107.255 64.1735 106.626 63.6555C106.404 63.58 105.604 63.1277 106.119 63.561C106.614 64.0873 107.239 64.6973 107.24 65.4617C106.993 66.3716 105.813 66.5744 105.178 66.8754C105.977 66.906 106.908 66.8438 107.558 67.384C108.049 68.2231 107.423 69.1407 107.1 69.9129C107.696 69.3635 108.313 68.6464 109.166 68.5619C110.115 68.7764 110.325 69.986 110.635 70.647C110.66 69.8459 110.594 68.906 111.145 68.2577C111.967 67.7444 112.967 68.4417 113.651 68.6963C113.099 68.1049 112.377 67.4695 112.331 66.6085C112.599 65.6904 113.674 65.5099 114.434 65.184C113.618 65.1441 112.616 65.247 111.992 64.63C111.545 63.7954 112.161 62.9088 112.475 62.148C111.868 62.6891 111.237 63.465 110.366 63.485C109.435 63.2054 109.249 62.1069 108.927 61.3275L108.927 61.3665L108.927 61.3666ZM283.392 62.2843C283.217 62.9083 282.663 63.5625 281.949 63.379C281.545 63.3067 281.197 63.0579 280.92 62.7658C281.163 63.3645 281.384 64.3358 280.639 64.6709C280.297 64.851 279.837 64.8652 279.506 64.8843C280.121 65.129 280.964 65.6661 280.709 66.4452C280.594 66.8261 280.306 67.147 280.048 67.4169C280.648 67.1789 281.599 66.9132 281.989 67.6158C282.199 67.9682 282.212 68.4628 282.233 68.8092C282.49 68.2184 282.98 67.3664 283.749 67.5892C284.146 67.6955 284.493 68.0155 284.763 68.2629C284.525 67.6637 284.265 66.7108 284.972 66.3281C285.337 66.1193 285.769 66.0871 286.18 66.088C285.558 65.8457 284.698 65.3115 284.957 64.5232C285.073 64.1352 285.347 63.8205 285.629 63.5412C285.013 63.8164 284.03 64.0419 283.647 63.2986C283.458 62.9515 283.436 62.545 283.438 62.1582L283.411 62.2317L283.392 62.2843ZM181.772 63.4492C181.472 64.0934 180.58 64.3014 180.041 63.9076C180.29 64.5557 179.865 65.3734 179.146 65.4302C179.791 65.7084 180.109 66.5986 179.629 67.1635C180.281 66.9025 181.132 67.3046 181.191 68.0404C181.471 67.3845 182.38 67.1035 182.915 67.5529C182.658 66.8996 183.071 66.0615 183.802 65.9996C183.156 65.7204 182.851 64.838 183.318 64.2707C182.666 64.4978 181.882 64.1807 181.771 63.4491L181.772 63.4492ZM80.1195 68.3854C79.7286 69.2807 78.3701 69.1722 77.8546 68.4542C77.1615 67.9313 76.4643 67.414 75.7609 66.905C76.4378 68.0576 77.2077 69.2013 77.5441 70.508C77.2738 71.418 76.1737 71.5938 75.3548 71.5979C74.6909 71.7218 74.0234 71.8251 73.3559 71.9279C74.6461 72.2629 75.9968 72.5282 77.1554 73.2144C77.6068 74.0576 76.9406 74.957 76.365 75.5456C75.9868 76.0981 75.5913 76.6383 75.1957 77.1783C76.345 76.503 77.4862 75.7363 78.7894 75.4006C79.6993 75.671 79.8751 76.771 79.8792 77.5899C80.003 78.2541 80.1068 78.9218 80.2094 79.5896C80.5444 78.2995 80.8093 76.9487 81.4955 75.7903C82.3237 75.3401 83.2132 75.9909 83.8003 76.549C84.3503 76.9519 84.9131 77.3408 85.46 77.7495C84.785 76.6 84.0179 75.4593 83.6819 74.1561C83.952 73.2462 85.0517 73.0697 85.8707 73.0655C86.5348 72.9416 87.2024 72.8383 87.87 72.7355C86.5805 72.4007 85.2309 72.1346 84.0722 71.4505C83.6255 70.6272 84.2605 69.7276 84.8356 69.1543C85.2221 68.5897 85.626 68.0372 86.0304 67.4853C84.881 68.1604 83.7398 68.9268 82.4368 69.2625C81.5272 68.9919 81.3505 67.8921 81.3479 67.0731C81.2282 66.4113 81.1191 65.7476 81.0167 65.0829C80.7176 66.1837 80.4186 67.2845 80.1196 68.3852L80.1195 68.3854ZM333.815 70.794C333.468 71.7065 332.108 71.6652 331.557 70.9745C330.609 70.3401 329.668 69.6955 328.705 69.0824C329.573 70.4214 330.558 71.7235 331.119 73.2282C330.939 74.1421 329.874 74.4339 329.063 74.4608C328.109 74.6815 327.145 74.8592 326.187 75.0653C327.747 75.3986 329.363 75.6233 330.824 76.2898C331.344 77.0627 330.795 78.0224 330.243 78.6148C329.724 79.447 329.167 80.2544 328.634 81.0783C329.974 80.2106 331.276 79.2251 332.781 78.6643C333.695 78.8446 333.986 79.9109 334.014 80.7205C334.227 81.6757 334.418 82.6358 334.618 83.5938C334.951 82.0345 335.176 80.4189 335.842 78.9591C336.627 78.4335 337.587 79.0041 338.191 79.5536C339.014 80.0699 339.814 80.6214 340.63 81.1484C339.763 79.81 338.78 78.5087 338.216 77.0063C338.39 76.097 339.449 75.7953 340.256 75.774C341.216 75.5515 342.185 75.3725 343.149 75.165C341.589 74.8318 339.973 74.607 338.513 73.9416C337.996 73.1788 338.528 72.2195 339.081 71.6355C339.603 70.7969 340.165 69.9833 340.701 69.1532C339.362 70.0206 338.061 71.0034 336.558 71.5667C335.65 71.3918 335.347 70.3348 335.328 69.528C335.118 68.5733 334.919 67.616 334.721 66.6585C334.419 68.037 334.117 69.4154 333.815 70.7939L333.815 70.794ZM31.3947 75.3342C30.9785 75.4268 31.45 76.0586 31.6242 75.6289C31.7012 75.47 31.5671 75.3039 31.3947 75.3342ZM221.269 77.5417C221.005 77.6937 221.509 78.1065 221.55 77.7266C221.559 77.593 221.371 77.5402 221.269 77.5417ZM148.552 78.963C148.387 79.5979 147.783 80.2315 147.079 80.0128C146.782 79.9572 146.475 79.7459 146.272 79.5969C146.563 80.1662 146.67 81.0875 145.963 81.3935C145.689 81.5359 145.381 81.5935 145.076 81.6187C145.706 81.8157 146.456 82.407 146.19 83.1472C146.1 83.4405 145.921 83.697 145.723 83.9283C146.307 83.6227 147.254 83.5049 147.593 84.2138C147.74 84.4828 147.789 84.8178 147.817 85.0998C148.014 84.4694 148.606 83.7208 149.346 83.9875C149.64 84.0775 149.898 84.2562 150.13 84.4537C149.826 83.8683 149.687 82.9144 150.416 82.5827C150.683 82.4378 151.021 82.3873 151.298 82.3586C150.671 82.1611 149.919 81.5765 150.181 80.8373C150.267 80.5432 150.466 80.2723 150.647 80.0523C150.059 80.3601 149.107 80.4672 148.775 79.7504C148.643 79.4993 148.587 79.216 148.562 78.9357L148.552 78.963ZM54.1238 83.433C53.8322 84.0735 53.7361 84.9586 53.0538 85.3146C52.2287 85.6369 51.41 84.9994 50.9544 84.3588C50.6792 84.0577 51.0577 84.6997 51.0819 84.8689C51.2529 85.3865 51.4383 85.9789 51.2762 86.5104C50.7319 87.1977 49.7603 87.0744 48.9853 87.0926C49.702 87.3876 50.5337 87.6871 50.9401 88.394C51.0351 89.2624 50.2676 89.8564 49.7327 90.4158C50.4439 90.1233 51.2557 89.7483 52.0288 89.9537C52.715 90.4953 52.5908 91.4646 52.6123 92.2369C52.9176 91.5233 53.2134 90.6376 53.9578 90.2855C54.8102 90.2185 55.3759 90.9805 55.9364 91.495C55.6522 90.7724 55.2188 89.9475 55.5031 89.1636C56.0579 88.4957 57.0426 88.654 57.7884 88.6147C57.0783 88.3368 56.2114 88.0782 55.8344 87.3575C55.6774 86.4911 56.439 85.8487 56.9894 85.3075C56.2828 85.598 55.4956 85.9611 54.7197 85.758C54.0137 85.1932 54.1616 84.1968 54.1377 83.3996L54.1238 83.433ZM6.57454 88.3323C6.3545 89.2757 5.02452 89.4302 4.36643 88.855C3.68253 88.5014 2.98147 88.1824 2.27908 87.8676C3.09189 88.807 4.08861 89.6918 4.54205 90.8643C4.42691 91.7816 3.41494 92.1535 2.62984 92.3273C2.08932 92.5385 1.54446 92.7382 1 92.9389C2.23502 93.0281 3.5616 92.9501 4.70803 93.4563C5.2952 94.2095 4.79454 95.2045 4.36333 95.9022C4.13778 96.4124 3.90673 96.92 3.67353 97.4267C4.60921 96.6164 5.49183 95.6256 6.65932 95.1725C7.60259 95.2905 7.95498 96.3411 8.14359 97.1373C8.34753 97.6602 8.54084 98.1873 8.73535 98.7137C8.82356 97.479 8.74683 96.1532 9.2526 95.0069C10.0058 94.4198 11.0008 94.9205 11.6986 95.3516C12.2088 95.5772 12.7166 95.8084 13.2234 96.0415C12.4138 95.1065 11.4253 94.2234 10.9687 93.0588C11.0834 92.1136 12.1364 91.7605 12.9329 91.5715C13.4559 91.3673 13.9831 91.1738 14.5098 90.9794C13.2753 90.8903 11.9492 90.9681 10.8033 90.4623C10.2177 89.7114 10.7151 88.7182 11.1442 88.0211C11.3686 87.5083 11.6037 87.0002 11.838 86.4919C10.9034 87.3017 10.0198 88.2902 8.85511 88.746C7.90957 88.6298 7.55473 87.5771 7.36847 86.7791C7.16859 86.259 6.97278 85.7372 6.77936 85.2147L6.57454 88.3323ZM170.756 86.2229C170.614 86.546 170.217 86.7053 169.997 86.8796C170.123 87.1939 169.98 87.5768 169.923 87.8405C170.244 87.9748 170.386 88.3913 170.597 88.5693C170.911 88.4451 171.292 88.5919 171.554 88.6476C171.688 88.3249 172.109 88.1858 172.283 87.9686C172.161 87.6553 172.302 87.2773 172.369 87.0156C172.05 86.879 171.885 86.4901 171.704 86.2808C171.394 86.4089 171.02 86.2764 170.756 86.2229L170.756 86.2229ZM100.306 90.0217C99.7543 90.8277 98.4404 90.4693 98.0665 89.6681C97.5142 89.0538 96.9505 88.4524 96.3842 87.8508C96.8039 89.069 97.3758 90.3039 97.4259 91.5979C96.9946 92.4417 95.8815 92.4191 95.0775 92.2708C94.4398 92.2627 93.8022 92.2427 93.1648 92.222C94.3278 92.7953 95.6391 93.2433 96.5627 94.1724C96.8241 95.0868 95.9931 95.8222 95.3315 96.3034C94.8837 96.7353 94.4304 97.1614 93.9766 97.587C95.2029 97.1701 96.4427 96.5655 97.7507 96.5579C98.5905 97.0146 98.5271 98.1301 98.3962 98.9405C98.386 99.5621 98.3658 100.184 98.3459 100.805C98.9191 99.6417 99.367 98.3302 100.296 97.4065C101.188 97.1518 101.928 97.942 102.392 98.6007C102.835 99.0594 103.271 99.5233 103.707 99.9883C103.288 98.772 102.717 97.5387 102.667 96.2467C103.1 95.403 104.211 95.4262 105.016 95.5743C105.654 95.5822 106.291 95.6022 106.928 95.6228C105.766 95.0503 104.457 94.6018 103.531 93.6753C103.275 92.7835 104.065 92.0418 104.724 91.5772C105.183 91.1348 105.647 90.6976 106.113 90.262C104.897 90.6814 103.665 91.2485 102.374 91.303C101.527 90.8726 101.55 89.7577 101.699 88.9517C101.708 88.3194 101.726 87.6872 101.746 87.0552L100.306 90.0217ZM303.821 87.38C303.523 87.4937 303.431 87.8871 303.705 88.0814C304.039 88.37 304.568 87.802 304.223 87.4904C304.118 87.395 303.958 87.3689 303.821 87.38ZM196.041 87.8954C195.494 87.9813 195.748 88.886 196.262 88.6621C196.704 88.5177 196.579 87.8343 196.041 87.8954ZM127.534 88.7285C127.26 89.3441 126.484 89.7006 125.876 89.329C125.715 89.2557 125.512 89.052 125.653 89.3613C125.837 89.9424 125.554 90.6573 124.923 90.7909C124.72 90.853 124.484 90.855 124.788 90.9844C125.392 91.3338 125.646 92.2321 125.127 92.7617C124.972 92.9351 125.364 92.7026 125.454 92.7387C126.052 92.6086 126.689 92.9964 126.768 93.6211C126.788 94.0338 126.893 93.6739 127.03 93.514C127.361 92.9932 128.086 92.8436 128.581 93.2197C128.835 93.4433 128.748 93.2549 128.696 93.0336C128.534 92.4477 128.874 91.7859 129.492 91.6746C129.743 91.6241 129.88 91.6059 129.576 91.4748C129.046 91.1932 128.748 90.5014 129.094 89.968C129.151 89.8103 129.443 89.5428 129.105 89.6988C128.519 89.8976 127.769 89.639 127.633 88.9871C127.589 88.9482 127.583 88.5852 127.534 88.7285L127.534 88.7285ZM278.169 97.442C277.809 98.0556 277.538 98.7482 277.076 99.2881C276.363 99.8424 275.295 99.3271 274.978 98.5633C274.781 98.317 274.569 98.0372 274.375 97.8162C274.616 98.6481 274.979 99.5866 274.654 100.438C273.981 101.178 272.891 100.808 272.039 100.746C271.816 100.731 272.44 100.977 272.553 101.071C273.108 101.406 273.785 101.789 273.983 102.44C273.983 103.466 272.896 103.957 272.239 104.541C273.069 104.305 273.994 103.925 274.85 104.217C275.589 104.838 275.316 105.912 275.198 106.734C275.096 107.311 275.441 106.419 275.58 106.249C275.908 105.738 276.26 105.074 276.882 104.919C277.881 104.911 278.38 105.94 278.936 106.6C279.02 106.649 278.769 106.028 278.744 105.841C278.615 105.248 278.395 104.527 278.73 103.979C279.444 103.267 280.529 103.658 281.4 103.723C281.276 103.624 280.811 103.4 280.559 103.239C280.097 102.929 279.497 102.591 279.367 102.017C279.362 101.022 280.387 100.523 281.043 99.9701C281.126 99.8709 280.537 100.117 280.365 100.14C279.748 100.288 279.011 100.49 278.426 100.17C277.697 99.426 278.124 98.3014 278.19 97.4061L278.169 97.442ZM242.822 98.0288C242.644 98.4817 242.072 98.6803 241.696 98.7459C241.85 99.1781 241.75 99.7162 241.385 100.014C241.847 100.167 242.115 100.7 242.125 101.121C242.565 100.954 243.081 101.104 243.424 101.411C243.605 100.975 244.119 100.711 244.526 100.688C244.363 100.249 244.512 99.7359 244.818 99.3953C244.382 99.2108 244.116 98.7002 244.098 98.2841C243.665 98.4625 243.128 98.297 242.822 98.0288V98.0288ZM218.258 107.746C217.621 108.47 216.376 107.985 216.073 107.165C215.355 106.147 214.606 105.154 213.836 104.174C214.222 105.825 214.739 107.478 214.776 109.184C214.299 109.983 213.197 109.898 212.427 109.65C211.349 109.522 210.278 109.343 209.201 109.207C210.644 110.104 212.181 110.91 213.418 112.088C213.65 113.001 212.795 113.718 212.072 114.096C211.224 114.762 210.343 115.391 209.493 116.051C211.149 115.664 212.806 115.146 214.515 115.108C215.324 115.591 215.221 116.702 214.98 117.48C214.851 118.55 214.673 119.614 214.538 120.684C215.435 119.24 216.241 117.703 217.421 116.466C218.314 116.239 219.041 117.06 219.401 117.782C220.078 118.639 220.713 119.529 221.383 120.392C220.996 118.737 220.477 117.079 220.439 115.369C220.922 114.561 222.033 114.663 222.811 114.905C223.882 115.034 224.945 115.212 226.015 115.346C224.572 114.449 223.035 113.643 221.798 112.464C221.569 111.567 222.397 110.84 223.12 110.478C223.975 109.803 224.863 109.17 225.724 108.502C224.068 108.889 222.411 109.407 220.701 109.445C219.902 108.968 219.987 107.866 220.235 107.096C220.375 106.026 220.524 104.958 220.677 103.89L218.258 107.746ZM332.479 110.765C332.308 111.727 330.961 111.941 330.291 111.363C329.637 111.074 328.975 110.799 328.314 110.525C329.131 111.39 330.083 112.223 330.576 113.316C330.501 114.239 329.503 114.658 328.72 114.851C328.236 115.064 327.748 115.269 327.258 115.471C328.445 115.505 329.708 115.421 330.826 115.849C331.438 116.575 330.985 117.585 330.575 118.292C330.392 118.769 330.198 119.242 330.002 119.715C330.865 118.899 331.7 117.947 332.794 117.461C333.719 117.542 334.126 118.546 334.323 119.328C334.538 119.806 334.741 120.289 334.942 120.774C334.975 119.588 334.892 118.326 335.321 117.209C336.045 116.6 337.056 117.049 337.761 117.46C338.238 117.644 338.712 117.837 339.185 118.034C338.369 117.17 337.416 116.335 336.931 115.241C337.014 114.318 338.015 113.91 338.796 113.713C339.275 113.499 339.759 113.295 340.244 113.094C339.058 113.061 337.796 113.144 336.679 112.715C336.071 111.991 336.52 110.981 336.929 110.277C337.113 109.799 337.307 109.324 337.503 108.851C336.641 109.667 335.806 110.619 334.712 111.105C333.785 111.022 333.376 110.016 333.179 109.231C332.968 108.752 332.763 108.271 332.563 107.788L332.479 110.765ZM146.501 109.568C146.314 110.056 145.777 110.395 145.254 110.319C145.512 110.787 145.365 111.432 144.943 111.755C145.496 111.873 145.786 112.564 145.773 112.977C146.24 112.748 146.87 112.869 147.182 113.296C147.342 112.788 147.886 112.421 148.419 112.489C148.178 112.018 148.294 111.371 148.732 111.054C148.227 110.891 147.849 110.353 147.927 109.818C147.461 110.087 146.825 109.903 146.501 109.568L146.501 109.568ZM120.439 114.117C120.182 114.231 119.782 114.1 119.715 114.471C119.55 114.592 119.462 114.756 119.585 114.936C119.57 115.156 119.621 115.367 119.856 115.425C119.995 115.61 120.198 115.692 120.401 115.566C120.613 115.594 120.78 115.503 120.84 115.3C121.03 115.16 121.095 114.953 120.982 114.748C121.003 114.542 120.908 114.358 120.698 114.318C120.61 114.265 120.534 114.134 120.439 114.117V114.117ZM180.881 118.505C180.793 119.469 179.482 119.799 178.769 119.285C177.92 118.995 177.067 118.714 176.211 118.441C177.233 119.34 178.342 120.198 179.086 121.353C179.111 122.298 178.127 122.808 177.353 123.069C176.739 123.409 176.114 123.725 175.489 124.043C176.844 123.957 178.232 123.78 179.572 124.071C180.26 124.723 179.92 125.782 179.556 126.515C179.364 127.187 179.146 127.851 178.93 128.516C179.827 127.496 180.683 126.389 181.837 125.649C182.79 125.626 183.293 126.623 183.56 127.4C183.897 128.008 184.211 128.627 184.526 129.247C184.439 127.892 184.262 126.503 184.553 125.164C185.205 124.475 186.264 124.815 186.997 125.179C187.669 125.371 188.333 125.589 188.997 125.805C187.979 124.909 186.874 124.052 186.131 122.903C186.103 121.953 187.094 121.443 187.871 121.181C188.482 120.843 189.106 120.527 189.729 120.21C188.374 120.296 186.987 120.472 185.647 120.184C184.958 119.533 185.296 118.473 185.66 117.741C185.856 117.069 186.071 116.404 186.286 115.739C185.391 116.756 184.535 117.859 183.389 118.604C182.44 118.635 181.922 117.647 181.665 116.868C181.334 116.254 181.012 115.635 180.695 115.015L180.881 118.505ZM93.9418 120.301C93.6601 121.236 92.2993 121.292 91.7008 120.641C90.8462 120.146 89.9885 119.656 89.1237 119.177C89.9954 120.328 90.9645 121.445 91.5476 122.778C91.4334 123.702 90.3905 124.067 89.5855 124.152C88.7943 124.39 87.9974 124.608 87.2022 124.832C88.6307 125.03 90.1039 125.135 91.4563 125.664C92.043 126.42 91.5235 127.424 91.014 128.072C90.6319 128.783 90.2314 129.485 89.8367 130.19C90.9861 129.319 92.1028 128.353 93.4321 127.77C94.3481 127.881 94.7236 128.912 94.8017 129.714C95.0425 130.511 95.2622 131.314 95.4881 132.115C95.6855 130.686 95.7912 129.212 96.321 127.86C97.0779 127.275 98.0801 127.795 98.7279 128.303C99.4394 128.686 100.141 129.086 100.846 129.48C99.9751 128.331 99.0089 127.215 98.425 125.885C98.5377 124.969 99.569 124.593 100.372 124.515C101.168 124.274 101.97 124.055 102.771 123.829C101.342 123.632 99.8696 123.526 98.5171 122.998C97.9434 122.263 98.4242 121.265 98.9345 120.635C99.3251 119.908 99.733 119.191 100.136 118.472C98.9865 119.342 97.8704 120.309 96.5405 120.892C95.5884 120.772 95.2469 119.691 95.1498 118.871C94.9241 118.104 94.7042 117.335 94.489 116.565C94.3066 117.81 94.1242 119.056 93.9418 120.301L93.9418 120.301ZM49.026 121.008C48.7371 121.941 47.3747 121.985 46.7818 121.329C45.7447 120.722 44.7087 120.115 43.6578 119.532C44.6437 120.863 45.7483 122.147 46.4366 123.665C46.3148 124.59 45.2663 124.949 44.4585 125.026C43.4602 125.318 42.4509 125.581 41.4512 125.86C43.0902 126.104 44.7792 126.231 46.3393 126.818C46.9203 127.58 46.3914 128.58 45.8765 129.224C45.3852 130.121 44.8676 131.003 44.3663 131.894C45.6974 130.908 46.9811 129.804 48.4985 129.116C49.4227 129.237 49.783 130.284 49.859 131.092C50.1519 132.09 50.4142 133.101 50.6941 134.101C50.9383 132.462 51.0648 130.773 51.652 129.214C52.413 128.633 53.4145 129.158 54.0569 129.675C54.9539 130.167 55.8367 130.684 56.7282 131.186C55.7425 129.855 54.6394 128.572 53.9498 127.056C54.0701 126.13 55.1183 125.772 55.9263 125.694C56.9249 125.401 57.935 125.138 58.9352 124.859C57.2965 124.614 55.6074 124.488 54.0476 123.901C53.4797 123.16 53.9682 122.166 54.4846 121.54C54.9839 120.628 55.5106 119.73 56.0209 118.824C54.6901 119.809 53.4066 120.912 51.8909 121.603C50.9742 121.487 50.6041 120.452 50.5343 119.648C50.2475 118.647 49.9719 117.643 49.699 116.638C49.4746 118.095 49.2503 119.552 49.026 121.008L49.026 121.008ZM304.381 117.512C304.153 117.666 303.729 117.482 303.657 117.826C303.537 117.993 303.269 118.175 303.458 118.395C303.485 118.632 303.468 118.957 303.786 118.964C303.946 119.075 304.111 119.329 304.312 119.128C304.558 119.112 304.836 119.079 304.875 118.785C305.06 118.636 305.13 118.443 305.003 118.241C305.012 118.013 304.978 117.748 304.7 117.742C304.581 117.689 304.487 117.538 304.381 117.512ZM245.24 136.599C244.964 137.527 243.626 137.6 243.005 136.985C241.971 136.387 240.923 135.821 239.86 135.277C240.873 136.575 242.004 137.823 242.724 139.315C242.621 140.267 241.55 140.629 240.733 140.739C239.765 141.049 238.788 141.331 237.816 141.629C239.454 141.831 241.138 141.915 242.706 142.461C243.291 143.185 242.831 144.19 242.331 144.828C241.857 145.748 241.357 146.655 240.872 147.569C242.172 146.553 243.423 145.42 244.919 144.698C245.843 144.796 246.227 145.831 246.325 146.633C246.642 147.621 246.928 148.619 247.233 149.61C247.435 147.965 247.507 146.264 248.088 144.698C248.857 144.135 249.863 144.628 250.511 145.152C251.41 145.593 252.287 146.076 253.17 146.548C252.155 145.249 251.024 143.998 250.301 142.505C250.398 141.579 251.436 141.194 252.24 141.096C253.226 140.781 254.22 140.493 255.21 140.19C253.572 139.988 251.886 139.905 250.318 139.358C249.733 138.631 250.197 137.626 250.697 136.987C251.17 136.068 251.669 135.163 252.154 134.251C250.853 135.266 249.603 136.397 248.109 137.122C247.157 137.02 246.794 135.949 246.683 135.132C246.382 134.168 246.09 133.201 245.8 132.234L245.24 136.599ZM275.896 135.209C275.679 135.514 275.296 135.637 274.954 135.724C275.061 136.101 274.809 136.51 274.701 136.79C275.028 136.988 275.139 137.44 275.261 137.712C275.629 137.62 276.026 137.863 276.305 137.956C276.501 137.631 276.952 137.521 277.22 137.401C277.127 137.031 277.363 136.632 277.474 136.355C277.151 136.158 277.02 135.725 276.921 135.436C276.561 135.525 276.168 135.309 275.896 135.209V135.209ZM5.19404 140.414C5.01233 140.646 4.56596 140.586 4.45684 140.824C4.49037 141.099 4.12304 141.359 4.23564 141.569C4.48412 141.754 4.36221 142.291 4.7289 142.266C5.0148 142.284 5.25627 142.676 5.48322 142.369C5.65995 142.187 6.09324 142.316 6.04831 141.994C6.07152 141.704 6.44923 141.431 6.14614 141.192C5.98704 140.98 6.07932 140.575 5.72549 140.633C5.53478 140.609 5.34893 140.446 5.19404 140.414V140.414ZM298.802 141.13C298.603 141.762 298.502 142.699 297.72 142.862C296.996 143.042 296.356 142.555 295.91 142.046C295.771 141.962 296.119 142.517 296.162 142.717C296.35 143.235 296.591 144.02 295.994 144.358C295.491 144.703 294.857 144.691 294.274 144.736C294.944 144.96 295.84 145.168 296.116 145.896C296.242 146.644 295.674 147.26 295.209 147.767C295.849 147.444 296.617 147.042 297.338 147.316C297.922 147.787 297.931 148.602 297.97 149.287C298.194 148.608 298.458 147.812 299.12 147.453C299.881 147.341 300.486 147.932 301.008 148.395C300.698 147.749 300.271 146.967 300.548 146.25C301.021 145.65 301.862 145.663 302.554 145.613C301.87 145.391 300.948 145.175 300.699 144.411C300.599 143.67 301.167 143.075 301.623 142.569C300.999 142.884 300.232 143.353 299.529 143.049C298.88 142.6 298.878 141.72 298.836 141.014L298.814 141.089L298.802 141.13ZM152.769 143.044C152.748 143.711 152.566 144.63 151.781 144.759C151.243 144.865 150.706 144.631 150.269 144.336C150.605 144.874 151.155 145.586 150.764 146.23C150.411 146.704 149.804 146.854 149.258 146.975C149.923 147.079 150.833 147.238 151.063 147.969C151.17 148.546 150.791 149.143 150.545 149.558C151.083 149.166 151.831 148.646 152.503 148.994C152.985 149.329 153.143 149.997 153.263 150.485C153.376 149.842 153.514 148.972 154.197 148.711C154.787 148.569 155.419 148.973 155.836 149.214C155.464 148.68 154.949 147.967 155.249 147.301C155.568 146.785 156.301 146.627 156.766 146.503C156.125 146.389 155.253 146.25 154.997 145.565C154.874 144.972 155.22 144.385 155.506 143.925C154.97 144.301 154.249 144.82 153.582 144.512C153.061 144.159 152.909 143.504 152.781 142.928L152.773 143.006L152.769 143.044H152.769ZM213.977 148.094C213.796 148.286 213.41 148.36 213.495 148.698C213.367 148.989 213.66 149.204 213.821 149.403C214.065 149.43 214.392 149.564 214.537 149.284C214.845 149.191 214.823 148.792 214.787 148.541C214.638 148.353 214.514 148.032 214.22 148.153C214.138 148.142 214.06 148.095 213.977 148.094H213.977ZM331.336 148.871C330.826 148.96 331.303 149.825 331.647 149.395C331.837 149.146 331.617 148.839 331.336 148.871ZM81.3654 148.976C81.3877 149.069 81.4112 148.936 81.3654 148.976V148.976ZM81.2165 151.426C80.9591 151.726 80.4739 151.749 80.1792 151.822C80.1982 152.211 79.8434 152.544 79.7114 152.807C80.0009 153.064 79.9942 153.55 80.0914 153.826C80.4758 153.813 80.8251 154.122 81.067 154.304C81.3236 154.008 81.802 153.971 82.1058 153.929C82.082 153.538 82.3926 153.177 82.5735 152.929C82.2814 152.67 82.2336 152.201 82.2074 151.889C81.8217 151.907 81.4516 151.646 81.2165 151.426L81.2165 151.426ZM129.782 153.804C129.587 154.117 129.152 154.222 128.885 154.337C128.964 154.691 128.739 155.068 128.627 155.333C128.934 155.522 129.078 155.926 129.151 156.216C129.51 156.125 129.898 156.35 130.168 156.462C130.357 156.151 130.788 156.042 131.049 155.929C130.961 155.571 131.205 155.191 131.298 154.921C130.99 154.729 130.855 154.321 130.788 154.025C130.436 154.112 130.048 153.936 129.782 153.804L129.782 153.804ZM47.1397 156.475C46.8882 156.591 46.5076 156.32 46.3683 156.642C46.1595 156.788 45.9376 156.974 46.0678 157.249C46.0366 157.422 45.9791 157.653 46.2065 157.707C46.3623 157.867 46.4987 158.182 46.7677 158.019C46.9822 158.051 47.2514 158.091 47.3251 157.832C47.4924 157.707 47.7122 157.554 47.5885 157.32C47.6303 157.102 47.6678 156.83 47.3948 156.766C47.2966 156.684 47.2419 156.539 47.1397 156.475V156.475ZM181.176 159.973C180.938 160.921 179.578 161.037 178.952 160.412C178.378 160.107 177.798 159.814 177.217 159.524C177.93 160.405 178.817 161.261 179.141 162.367C178.956 163.291 177.901 163.577 177.105 163.742C176.698 163.891 176.287 164.029 175.877 164.166C176.999 164.285 178.228 164.264 179.235 164.815C179.759 165.597 179.215 166.545 178.77 167.225C178.587 167.618 178.395 168.007 178.2 168.395C179.079 167.686 179.932 166.801 181.035 166.48C181.958 166.665 182.243 167.718 182.409 168.514C182.558 168.921 182.697 169.332 182.834 169.743C182.953 168.621 182.931 167.392 183.483 166.386C184.266 165.863 185.213 166.406 185.893 166.851C186.286 167.034 186.675 167.227 187.064 167.422C186.354 166.543 185.469 165.689 185.147 164.586C185.331 163.663 186.385 163.378 187.18 163.212C187.588 163.063 188 162.924 188.412 162.787C187.29 162.668 186.063 162.689 185.055 162.141C184.533 161.366 185.061 160.418 185.509 159.743C185.697 159.345 185.892 158.95 186.09 158.556C185.212 159.266 184.357 160.149 183.256 160.474C182.315 160.289 182.043 159.208 181.868 158.405C181.726 158.007 181.588 157.606 181.454 157.205L181.176 159.973ZM104.079 167.766C104.006 168.731 102.716 169.087 101.979 168.619C100.881 168.25 99.7573 167.954 98.6392 167.64C99.882 168.668 101.215 169.638 102.214 170.916C102.315 171.867 101.346 172.448 100.571 172.729C99.7174 173.217 98.8548 173.689 97.9953 174.167C99.6049 174.021 101.236 173.752 102.85 173.955C103.593 174.558 103.319 175.654 102.969 176.4C102.715 177.35 102.433 178.292 102.163 179.238C103.198 177.996 104.162 176.652 105.446 175.654C106.372 175.553 106.968 176.484 107.233 177.25C107.73 178.119 108.211 178.998 108.698 179.873C108.551 178.263 108.282 176.631 108.486 175.017C109.071 174.293 110.149 174.532 110.878 174.884C111.843 175.147 112.804 175.428 113.766 175.702C112.524 174.668 111.182 173.705 110.184 172.421C110.084 171.494 111.017 170.9 111.782 170.633C112.651 170.137 113.529 169.656 114.404 169.169C112.794 169.317 111.163 169.584 109.55 169.383C108.823 168.799 109.062 167.718 109.415 166.989C109.678 166.023 109.959 165.063 110.233 164.101C109.199 165.343 108.235 166.685 106.953 167.683C106 167.785 105.418 166.815 105.138 166.039C104.656 165.19 104.182 164.337 103.711 163.482C103.833 164.91 103.956 166.338 104.079 167.766V167.766ZM323.927 168.988C323.587 169.581 323.473 170.329 322.998 170.831C322.319 171.365 321.284 170.949 320.906 170.243C320.762 170.126 320.266 169.486 320.388 169.788C320.675 170.512 321.042 171.337 320.797 172.118C320.222 172.915 319.017 172.627 318.277 172.669C319.006 173.006 319.891 173.289 320.314 174.021C320.486 174.982 319.565 175.624 318.956 176.196C318.956 176.279 319.525 175.978 319.755 175.926C320.292 175.773 320.981 175.525 321.477 175.878C322.139 176.514 321.896 177.522 321.91 178.331C322.251 177.581 322.552 176.663 323.328 176.263C324.31 176.135 324.917 177.102 325.521 177.702C325.217 176.928 324.779 176.056 325.043 175.216C325.64 174.434 326.746 174.685 327.587 174.678C326.837 174.327 325.862 174.032 325.511 173.216C325.387 172.259 326.465 171.596 326.921 171.082C326.157 171.379 325.298 171.805 324.471 171.545C323.669 170.953 323.955 169.801 323.927 168.988L323.927 168.988ZM222.322 174.737C222.071 175.353 221.362 175.857 220.703 175.532C220.441 175.437 220.189 175.207 220.019 175.045C220.225 175.644 220.176 176.541 219.455 176.747C219.179 176.852 218.853 176.858 218.58 176.85C219.166 177.129 219.815 177.805 219.447 178.488C219.326 178.756 219.107 178.989 218.906 179.178C219.526 178.957 220.475 179.004 220.684 179.758C220.778 180.026 220.787 180.327 220.777 180.598C221.06 180.002 221.767 179.366 222.448 179.753C222.702 179.876 222.922 180.083 223.105 180.279C222.884 179.66 222.929 178.712 223.682 178.501C223.952 178.405 224.265 178.4 224.533 178.409C223.946 178.13 223.296 177.452 223.665 176.768C223.784 176.502 224.01 176.266 224.203 176.081C223.578 176.305 222.626 176.248 222.423 175.486C222.338 175.252 222.332 174.946 222.322 174.737H222.322ZM286.539 174.863C286.265 175.021 285.892 174.929 285.637 174.964C285.554 175.253 285.257 175.456 285.085 175.636C285.246 175.897 285.151 176.27 285.203 176.507C285.508 176.583 285.668 176.974 285.903 177.067C286.168 176.918 286.533 177.022 286.773 176.98C286.85 176.678 287.184 176.483 287.322 176.271C287.173 176.008 287.255 175.649 287.22 175.405C286.928 175.325 286.723 175.03 286.539 174.863H286.539ZM140.067 175.377C139.728 175.73 139.132 175.786 138.729 175.628C138.737 176.106 138.423 176.589 137.962 176.737C138.358 177.058 138.354 177.694 138.237 178.084C138.712 178.089 139.205 178.386 139.344 178.857C139.663 178.462 140.291 178.429 140.693 178.567C140.7 178.091 141.001 177.607 141.463 177.454C141.077 177.13 141.011 176.518 141.203 176.102C140.722 176.109 140.239 175.788 140.067 175.377L140.067 175.377ZM78.6011 179.219C78.5276 179.318 78.7945 179.305 78.6154 179.214H78.6087L78.601 179.219L78.6011 179.219ZM254.326 180.164C253.834 180.341 254.438 181.072 254.691 180.607C254.834 180.293 254.61 180.163 254.326 180.164ZM9.20782 188.766C8.97343 189.496 8.8525 190.289 8.50332 190.971C7.93143 191.669 6.77745 191.404 6.29677 190.732C5.99981 190.496 5.70954 190.253 5.40484 190.027C5.84168 190.83 6.44398 191.686 6.36525 192.637C5.9205 193.498 4.80693 193.449 3.98504 193.536C3.56227 193.57 3.54545 193.609 3.98693 193.7C4.73418 193.923 5.59689 194.129 6.10676 194.757C6.40048 195.677 5.58204 196.429 5.06215 197.071C4.80528 197.379 4.79184 197.443 5.17603 197.19C5.86188 196.819 6.61694 196.354 7.42153 196.438C8.28145 196.882 8.23514 197.995 8.32107 198.818C8.35812 199.131 8.3763 199.348 8.46406 198.892C8.69363 198.122 8.89186 197.228 9.53652 196.698C10.4719 196.398 11.2276 197.236 11.8824 197.76C12.2094 198.047 12.1899 197.961 11.9747 197.627C11.6038 196.941 11.1386 196.186 11.2224 195.381C11.6678 194.52 12.7823 194.568 13.605 194.481C13.8194 194.442 14.1882 194.44 13.7528 194.359C12.9588 194.123 12.0326 193.93 11.482 193.266C11.1868 192.354 11.9894 191.6 12.5111 190.965C12.7912 190.633 12.7946 190.577 12.4038 190.832C11.7207 191.203 10.9671 191.662 10.1658 191.58C9.29527 191.128 9.35153 189.998 9.26529 189.164C9.24427 189.034 9.22961 188.866 9.20766 188.766L9.20782 188.766ZM53.3097 189.399C52.9499 189.953 52.1174 190.139 51.5981 189.696C51.8563 190.361 51.2933 191.135 50.6547 191.167C51.2675 191.481 51.5045 192.359 51.0137 192.879C51.6637 192.681 52.4707 193.103 52.4993 193.824C52.8174 193.201 53.7266 193.012 54.2192 193.447C54.0261 192.8 54.4523 192.009 55.1663 191.979C54.5453 191.663 54.35 190.761 54.7887 190.262C54.1652 190.441 53.3937 190.053 53.3316 189.367L53.3097 189.399ZM164.376 190.835C164.296 191.526 164.105 192.513 163.261 192.611C162.697 192.686 162.163 192.388 161.741 192.043C162.039 192.61 162.53 193.335 162.15 193.973C161.789 194.464 161.025 194.564 160.566 194.655C161.208 194.815 162.079 195.015 162.295 195.723C162.372 196.343 161.984 196.886 161.637 197.358C162.199 197.015 162.903 196.581 163.573 196.83C164.125 197.174 164.239 197.986 164.334 198.474C164.485 197.817 164.712 196.922 165.455 196.74C166.047 196.669 166.635 197.118 167.025 197.382C166.682 196.814 166.204 196.05 166.561 195.395C166.924 194.9 167.682 194.797 168.155 194.705C167.511 194.546 166.631 194.346 166.422 193.629C166.35 193.009 166.738 192.468 167.086 191.996C166.507 192.359 165.704 192.855 165.038 192.447C164.563 192.043 164.47 191.386 164.382 190.805L164.376 190.835L164.376 190.835ZM193.32 192.484C192.927 193.026 192.678 193.706 192.174 194.155C191.426 194.626 190.429 194.058 190.153 193.293C189.995 193.082 189.83 192.815 189.684 192.632C189.861 193.42 190.146 194.305 189.82 195.085C189.146 195.804 188.071 195.435 187.242 195.295C187.403 195.427 187.813 195.645 188.056 195.831C188.463 196.156 189.02 196.541 189.028 197.106C188.922 198.014 187.979 198.422 187.337 198.914C188.13 198.755 189.045 198.422 189.808 198.815C190.492 199.51 190.114 200.564 189.977 201.393C190.43 200.708 190.862 199.799 191.712 199.571C192.664 199.616 193.108 200.611 193.604 201.273C193.45 200.478 193.107 199.56 193.504 198.796C194.198 198.112 195.251 198.489 196.08 198.626C195.401 198.169 194.503 197.743 194.259 196.906C194.296 195.935 195.322 195.476 195.998 194.986C195.194 195.17 194.282 195.459 193.491 195.107C192.77 194.41 193.219 193.288 193.32 192.484V192.484ZM109.347 200.894C108.892 200.959 109.301 201.668 109.558 201.27C109.63 201.121 109.545 200.864 109.347 200.894ZM216.571 201.909C216.557 202.249 216.87 201.766 216.571 201.909V201.909ZM134.132 206.64C134.019 207.61 132.688 207.903 131.985 207.367C131.154 207.065 130.321 206.768 129.485 206.481C130.465 207.404 131.591 208.266 132.278 209.431C132.295 210.368 131.312 210.872 130.538 211.112C129.91 211.43 129.274 211.734 128.64 212.041C129.984 212.001 131.388 211.815 132.695 212.152C133.37 212.805 133.029 213.855 132.651 214.574C132.433 215.243 132.198 215.906 131.966 216.57C132.889 215.592 133.75 214.466 134.914 213.782C135.85 213.769 136.353 214.747 136.593 215.522C136.912 216.15 137.215 216.786 137.522 217.421C137.482 216.077 137.296 214.672 137.634 213.365C138.288 212.69 139.338 213.032 140.057 213.41C140.725 213.628 141.388 213.862 142.051 214.093C141.074 213.17 139.946 212.31 139.263 211.146C139.25 210.21 140.228 209.707 141.003 209.467C141.631 209.148 142.267 208.845 142.902 208.538C141.558 208.578 140.153 208.764 138.846 208.426C138.171 207.772 138.514 206.722 138.891 206.003C139.109 205.335 139.343 204.673 139.574 204.009C138.652 204.987 137.791 206.114 136.626 206.797C135.69 206.809 135.187 205.831 134.949 205.055C134.635 204.429 134.328 203.8 134.023 203.17L134.132 206.64ZM217.338 203.887C217.223 204.178 216.836 204.294 216.693 204.501C216.79 204.78 216.636 205.112 216.654 205.355C216.923 205.473 217.067 205.801 217.232 205.973C217.512 205.864 217.855 206.034 218.094 206.008C218.222 205.73 218.614 205.633 218.733 205.41C218.635 205.133 218.786 204.802 218.785 204.564C218.507 204.445 218.369 204.091 218.185 203.931C217.906 204.015 217.609 203.919 217.338 203.887L217.338 203.887ZM80.3439 211.17C79.7553 211.95 78.4586 211.529 78.1234 210.711C77.3434 209.765 76.5485 208.832 75.7482 207.903C76.2301 209.513 76.8416 211.119 76.98 212.803C76.5455 213.638 75.4317 213.61 74.6398 213.412C73.5825 213.347 72.5274 213.243 71.4722 213.17C72.9518 213.968 74.5196 214.67 75.8087 215.765C76.0904 216.652 75.2973 217.42 74.6007 217.833C73.8032 218.54 72.9803 219.217 72.1756 219.916C73.7852 219.434 75.3897 218.824 77.0739 218.685C77.9225 219.127 77.8732 220.256 77.6787 221.057C77.6154 222.104 77.5132 223.148 77.4398 224.192C78.2373 222.713 78.9408 221.147 80.0334 219.857C80.9218 219.574 81.6915 220.368 82.1041 221.067C82.8118 221.863 83.4873 222.686 84.1858 223.49C83.7046 221.88 83.093 220.276 82.9555 218.591C83.3835 217.764 84.4896 217.781 85.2744 217.983C86.3385 218.046 87.4002 218.152 88.4621 218.226C86.9829 217.427 85.4151 216.725 84.1264 215.63C83.8448 214.744 84.637 213.975 85.3339 213.563C86.1313 212.855 86.9551 212.178 87.76 211.479C86.1504 211.961 84.5459 212.572 82.8617 212.71C82.0335 212.282 82.0507 211.175 82.253 210.39C82.3249 209.335 82.4094 208.28 82.4948 207.226C81.7779 208.541 81.0609 209.855 80.3439 211.17L80.3439 211.17ZM316.173 209.901C315.937 210.064 315.516 209.831 315.418 210.176C315.246 210.349 314.998 210.559 315.2 210.807C315.217 211.013 315.15 211.295 315.438 211.314C315.598 211.416 315.721 211.726 315.941 211.544C316.19 211.519 316.529 211.564 316.572 211.238C316.716 211.088 316.939 210.927 316.754 210.713C316.729 210.498 316.827 210.183 316.511 210.168C316.387 210.097 316.295 209.964 316.173 209.901V209.901ZM243.023 211.033C242.843 211.193 242.511 211.283 242.597 211.585C242.449 211.853 242.776 211.957 242.856 212.178C243.026 212.183 243.239 212.257 243.415 212.184C243.58 212.047 243.78 211.929 243.714 211.67C243.872 211.423 243.565 211.284 243.457 211.095C243.313 211.057 243.168 211.13 243.023 211.033V211.033ZM275.269 219.519C275.084 220.483 273.725 220.674 273.066 220.078C271.96 219.586 270.849 219.105 269.736 218.629C270.87 219.851 272.119 221.015 272.979 222.456C272.962 223.379 271.975 223.858 271.185 224.018C270.208 224.427 269.218 224.804 268.236 225.201C269.903 225.264 271.607 225.203 273.233 225.616C273.879 226.29 273.502 227.332 273.058 228.012C272.659 228.984 272.228 229.943 271.818 230.911C273.041 229.776 274.203 228.529 275.643 227.669C276.566 227.686 277.047 228.672 277.206 229.463C277.615 230.439 277.991 231.43 278.388 232.412C278.451 230.745 278.392 229.043 278.802 227.416C279.468 226.775 280.506 227.135 281.178 227.582C282.158 227.983 283.124 228.417 284.099 228.83C282.964 227.608 281.717 226.445 280.857 225.004C280.875 224.074 281.873 223.6 282.666 223.435C283.639 223.029 284.623 222.654 285.6 222.26C283.934 222.197 282.232 222.255 280.605 221.848C279.962 221.183 280.322 220.143 280.769 219.471C281.17 218.491 281.604 217.525 282.017 216.55C280.794 217.685 279.633 218.932 278.192 219.792C277.261 219.773 276.788 218.774 276.623 217.981C276.226 217.013 275.841 216.041 275.457 215.069L275.269 219.519ZM200.13 221.452C199.682 222.321 198.333 222.124 197.865 221.374C197.541 221.094 197.131 220.725 196.842 220.512C197.255 221.359 197.825 222.247 197.774 223.218C197.339 224.069 196.235 224.043 195.414 224.055C195.064 224.096 194.495 224.106 195.193 224.25C195.962 224.514 196.834 224.756 197.382 225.384C197.673 226.295 196.874 227.055 196.302 227.644C196.084 227.921 195.691 228.328 196.286 227.936C197.015 227.579 197.801 227.134 198.632 227.189C199.477 227.617 199.458 228.712 199.469 229.525C199.519 229.779 199.498 230.47 199.632 229.874C199.907 229.073 200.144 228.156 200.799 227.582C201.709 227.291 202.468 228.089 203.058 228.66C203.333 228.878 203.744 229.274 203.351 228.678C202.994 227.949 202.55 227.162 202.604 226.331C203.032 225.487 204.126 225.505 204.939 225.495C205.193 225.445 205.886 225.465 205.29 225.331C204.488 225.057 203.571 224.82 202.997 224.165C202.705 223.256 203.503 222.496 204.074 221.908C204.291 221.632 204.69 221.219 204.093 221.612C203.364 221.969 202.577 222.414 201.746 222.359C200.903 221.929 200.918 220.839 200.91 220.025C200.873 219.596 200.855 219.109 200.69 219.812C200.503 220.359 200.316 220.906 200.13 221.453L200.13 221.452ZM166.917 226.347C166.666 227.284 165.318 227.389 164.701 226.761C164.137 226.451 163.569 226.153 162.998 225.856C163.689 226.738 164.555 227.598 164.856 228.697C164.658 229.619 163.599 229.889 162.8 230.043C162.403 230.18 162.004 230.31 161.604 230.437C162.71 230.571 163.928 230.568 164.912 231.131C165.424 231.922 164.868 232.862 164.411 233.534C164.228 233.913 164.037 234.287 163.844 234.66C164.722 233.973 165.578 233.111 166.672 232.812C167.594 233.008 167.866 234.067 168.019 234.866C168.157 235.263 168.286 235.662 168.413 236.063C168.547 234.957 168.545 233.74 169.107 232.755C169.898 232.243 170.838 232.8 171.511 233.257C171.89 233.439 172.264 233.631 172.638 233.825C171.95 232.946 171.088 232.089 170.788 230.994C170.985 230.072 172.045 229.802 172.844 229.648C173.241 229.511 173.64 229.381 174.039 229.254C172.934 229.12 171.715 229.123 170.731 228.558C170.22 227.765 170.779 226.827 171.235 226.152C171.417 225.775 171.608 225.403 171.8 225.031C170.922 225.719 170.065 226.58 168.971 226.879C168.049 226.682 167.777 225.622 167.625 224.821C167.49 224.424 167.358 224.026 167.23 223.626L166.917 226.347ZM44.2597 229.52C43.8947 229.818 43.3666 229.816 42.9415 229.66C42.9091 230.127 42.5884 230.586 42.1256 230.709C42.4823 231.047 42.5143 231.65 42.3203 232.042C42.7926 232.074 43.2526 232.403 43.3845 232.861C43.723 232.507 44.3221 232.465 44.7159 232.668C44.7485 232.199 45.0639 231.734 45.5293 231.607C45.1648 231.268 45.1817 230.659 45.3193 230.268C44.8701 230.23 44.4266 229.936 44.2873 229.495L44.2597 229.52ZM110.678 236.492C110.562 237.447 109.266 237.748 108.553 237.251C107.504 236.842 106.429 236.506 105.36 236.153C106.525 237.211 107.781 238.216 108.694 239.509C108.752 240.432 107.806 240.991 107.03 241.215C106.172 241.662 105.297 242.079 104.432 242.512C106.009 242.441 107.613 242.25 109.177 242.527C109.875 243.145 109.587 244.213 109.202 244.927C108.907 245.842 108.594 246.75 108.287 247.662C109.351 246.497 110.351 245.23 111.652 244.319C112.583 244.262 113.134 245.222 113.365 245.999C113.809 246.852 114.223 247.721 114.653 248.581C114.582 247.004 114.392 245.4 114.669 243.836C115.287 243.138 116.354 243.425 117.067 243.812C117.983 244.106 118.892 244.419 119.803 244.726C118.639 243.662 117.373 242.662 116.461 241.364C116.401 240.441 117.347 239.882 118.122 239.658C118.982 239.215 119.852 238.79 120.719 238.36C119.143 238.432 117.539 238.621 115.976 238.344C115.28 237.725 115.566 236.658 115.953 235.946C116.243 235.028 116.566 234.12 116.869 233.208C115.805 234.373 114.804 235.641 113.503 236.553C112.571 236.609 112.02 235.649 111.788 234.87C111.357 234.021 110.933 233.169 110.512 232.315L110.678 236.492ZM11.428 250.525C11.1432 250.748 10.7132 250.733 10.419 250.737C10.3746 251.084 10.0558 251.359 9.8629 251.561C10.0891 251.842 10.0266 252.28 10.0602 252.557C10.4167 252.596 10.6731 252.971 10.9143 253.104C11.1927 252.889 11.6229 252.965 11.8889 252.905C11.934 252.559 12.2647 252.291 12.4447 252.083C12.2235 251.799 12.2992 251.358 12.2336 251.085C11.8942 251.034 11.6078 250.754 11.4281 250.525L11.428 250.525ZM321.698 254.86C321.192 254.922 321.655 255.751 321.985 255.351C322.188 255.153 321.944 254.828 321.698 254.86Z" fill="white" fill-opacity="0.3"/>
</g>
<defs>
<filter id="filter0_f" x="0" y="0" width="344.149" height="256.46" filterUnits="userSpaceOnUse" color-interpolation-filters="sRGB">
<feFlood flood-opacity="0" result="BackgroundImageFix"/>
<feBlend mode="normal" in="SourceGraphic" in2="BackgroundImageFix" result="shape"/>
<feGaussianBlur stdDeviation="0.5" result="effect1_foregroundBlur"/>
</filter>
</defs>
</svg>
